<svg width="24" height="24" viewBox="0 0 24 24" fill="none" xmlns="http://www.w3.org/2000/svg">
<path d="M17.4004 2C20.5459 2.0002 22.9999 4.4437 23 7.59375C23 9.52464 22.1369 11.3607 20.4131 13.4678C18.6783 15.5882 16.178 17.8595 13.0684 20.6768L13.0674 20.6777L12 21.6475L10.9326 20.6777L10.9316 20.6768L8.71582 18.6602C6.6193 16.7335 4.88802 15.0581 3.58691 13.4678C1.86312 11.3607 1 9.52464 1 7.59375C1.00013 4.4437 3.45412 2.0002 6.59961 2C8.38563 2 10.1163 2.83603 11.2412 4.14551L12 5.02832L12.7588 4.14551C13.8837 2.83603 15.6144 2 17.4004 2Z" stroke="#242424" stroke-width="2"/>
</svg>
