<svg width="113" height="21" viewBox="0 0 113 21" fill="none" xmlns="http://www.w3.org/2000/svg">
<path d="M7.41606 7.48805V9.24005H2.08805V16.8H5.48363e-05V4.76837e-05H8.01606V1.75205H2.08805V7.48805H7.41606ZM16.753 16.8C15.345 16.8 14.313 16.504 13.657 15.912C13.001 15.304 12.673 14.32 12.673 12.96V8.64005C12.673 7.26405 12.969 6.28005 13.561 5.68805C14.153 5.09605 15.137 4.80005 16.513 4.80005H17.641C18.777 4.80005 19.633 5.12005 20.209 5.76005C20.801 6.38405 21.097 7.30405 21.097 8.52005V11.64H14.713V13.44C14.713 13.936 14.865 14.32 15.169 14.592C15.473 14.864 15.921 15 16.513 15H20.329V16.8H16.753ZM19.105 8.04005C19.105 7.62405 18.969 7.28005 18.697 7.00805C18.425 6.73605 18.081 6.60005 17.665 6.60005H16.273C15.697 6.60005 15.289 6.73605 15.049 7.00805C14.825 7.26405 14.713 7.64805 14.713 8.16005V9.84005H19.105V8.04005ZM27.3859 4.80005V5.37605C27.8819 4.99205 28.5219 4.80005 29.3059 4.80005H30.4099C31.7059 4.80005 32.6659 5.10405 33.2899 5.71205C33.9299 6.32005 34.2499 7.29605 34.2499 8.64005V16.8H32.2099V8.16005C32.2099 7.68005 32.0659 7.30405 31.7779 7.03205C31.5059 6.74405 31.1299 6.60005 30.6499 6.60005H29.0659C28.5379 6.60005 28.1459 6.74405 27.8899 7.03205C27.6339 7.30405 27.5059 7.60005 27.5059 7.92005V16.8H25.4659V4.80005H27.3859ZM47.5469 17.64C47.5469 18.728 47.2189 19.536 46.5629 20.064C45.9229 20.608 44.9149 20.88 43.5389 20.88H38.5469V19.08H43.7789C44.3549 19.08 44.7869 18.968 45.0749 18.744C45.3629 18.52 45.5069 18.232 45.5069 17.88V17.112C45.5069 16.744 45.3629 16.456 45.0749 16.248C44.7869 16.024 44.3549 15.912 43.7789 15.912H39.6269V12.6C39.0989 12.312 38.7069 11.896 38.4509 11.352C38.1949 10.808 38.0669 10.104 38.0669 9.24005V8.64005C38.0669 7.29605 38.3949 6.32005 39.0509 5.71205C39.7229 5.10405 40.7549 4.80005 42.1469 4.80005H47.1869V9.24005C47.1869 10.44 46.8589 11.384 46.2029 12.072C45.5469 12.744 44.6749 13.08 43.5869 13.08H41.6669V14.112H43.5389C44.9149 14.112 45.9229 14.384 46.5629 14.928C47.2189 15.456 47.5469 16.264 47.5469 17.352V17.64ZM43.5869 11.28C44.0829 11.28 44.4589 11.12 44.7149 10.8C44.9709 10.48 45.1149 10.144 45.1469 9.79205V6.60005H41.9069C41.3149 6.60005 40.8669 6.73605 40.5629 7.00805C40.2589 7.28005 40.1069 7.66405 40.1069 8.16005V9.72005C40.1069 10.216 40.2589 10.6 40.5629 10.872C40.8669 11.144 41.3149 11.28 41.9069 11.28H43.5869ZM72.7967 12.72C72.7967 14.08 72.4207 15.104 71.6687 15.792C70.9327 16.464 69.8687 16.8 68.4767 16.8H65.0687V14.976H68.7167C69.3087 14.976 69.7887 14.8 70.1567 14.448C70.5247 14.096 70.7087 13.672 70.7087 13.176V10.68C70.7087 10.2 70.5807 9.81605 70.3247 9.52805C70.0847 9.22405 69.7167 9.07205 69.2207 9.07205H68.5007C67.3167 9.07205 66.3807 8.72805 65.6927 8.04005C65.0047 7.33605 64.6607 6.32005 64.6607 4.99205V4.08005C64.6607 2.72005 65.0287 1.70405 65.7647 1.03205C66.5167 0.344048 67.5887 4.76837e-05 68.9807 4.76837e-05H72.4127V1.82405H68.7407C68.1487 1.82405 67.6687 2.00005 67.3007 2.35205C66.9327 2.70405 66.7487 3.12805 66.7487 3.62405V5.44805C66.7487 5.94405 66.9087 6.36005 67.2287 6.69605C67.5487 7.01605 67.9647 7.17605 68.4767 7.17605H69.1967C70.3327 7.17605 71.2127 7.50405 71.8367 8.16005C72.4767 8.81605 72.7967 9.80805 72.7967 11.136V12.72ZM79.3497 4.76837e-05V5.28005C79.8297 4.96005 80.4297 4.80005 81.1497 4.80005H82.2537C83.5497 4.80005 84.5097 5.10405 85.1337 5.71205C85.7737 6.32005 86.0937 7.29605 86.0937 8.64005V16.8H84.0537V8.16005C84.0537 7.68005 83.9097 7.30405 83.6217 7.03205C83.3497 6.74405 82.9737 6.60005 82.4937 6.60005H80.9097C80.3977 6.60005 80.0137 6.73605 79.7577 7.00805C79.5017 7.26405 79.3657 7.54405 79.3497 7.84805V16.8H77.3097V4.76837e-05H79.3497ZM96.9906 16.248C96.4626 16.616 95.8226 16.8 95.0706 16.8H94.2546C92.9586 16.8 91.9906 16.496 91.3506 15.888C90.7266 15.28 90.4146 14.304 90.4146 12.96V4.80005H92.4546V13.44C92.4546 13.92 92.5906 14.304 92.8626 14.592C93.1506 14.864 93.5346 15 94.0146 15H95.3106C95.8226 15 96.1986 14.872 96.4386 14.616C96.6946 14.36 96.8386 14.072 96.8706 13.752V4.80005H98.9106V16.8H96.9906V16.248ZM108.752 4.76837e-05V2.16005H106.472V4.76837e-05H108.752ZM103.064 6.60005V4.80005H108.632V15H112.184V16.8H106.592V6.60005H103.064Z" fill="#242424"/>
</svg>
